<?xml version="1.0" encoding="UTF-8" standalone="no"?>
<!DOCTYPE svg PUBLIC "-//W3C//DTD SVG 1.1//EN" "http://www.w3.org/Graphics/SVG/1.1/DTD/svg11.dtd">
<svg width="4022px" height="941px" version="1.1" xmlns="http://www.w3.org/2000/svg" xmlns:xlink="http://www.w3.org/1999/xlink" xml:space="preserve" xmlns:serif="http://www.serif.com/" style="fill-rule:evenodd;clip-rule:evenodd;stroke-linejoin:round;stroke-miterlimit:2;">
    <path d="M1707.01,298.694l-167.625,42.503c-4.775,-19.415 -16.712,-34.697 -35.815,-45.847c-19.103,-11.14 -40.116,-16.712 -63.038,-16.712c-42.981,-0 -64.472,14.325 -64.472,42.978c0,9.241 3.022,17.194 9.075,23.878c6.044,6.688 23.069,14.991 51.075,24.9l103.563,36.944c27.044,9.597 52.206,23.697 75.472,42.309c23.265,18.61 39.997,38.975 50.193,61.085c10.2,22.106 15.307,45.725 15.307,70.859c-0,65.859 -25.872,120.256 -77.603,163.2c-51.741,42.947 -120.75,64.419 -207.025,64.419c-73.863,-0 -138.254,-14.963 -193.172,-44.891c-54.919,-29.922 -93.207,-75.616 -114.853,-137.062l188.159,-36.772c16.237,46.165 56.35,69.247 120.344,69.247c26.743,-0 46.084,-4.85 58.025,-14.566c11.937,-9.709 17.909,-20.775 17.909,-33.191c0,-7.956 -2.316,-14.962 -6.925,-21.012c-4.619,-6.044 -9.553,-10.425 -14.806,-13.135c-5.253,-2.7 -29.994,-12.206 -74.222,-28.518c-59.831,-22.057 -101.766,-39.525 -125.825,-52.413c-24.056,-12.887 -44.119,-32.056 -60.209,-57.509c-16.088,-25.453 -24.132,-55.36 -24.132,-89.731c0,-59.494 21.888,-109.844 65.666,-151.05c43.772,-41.207 110.712,-61.807 200.816,-61.807c68.768,0 127.662,14.491 176.696,43.46c49.025,28.975 81.497,68.456 97.422,118.434" style="fill:#fff;fill-rule:nonzero;stroke:#19315c;stroke-width:0.75px;"/>
    <path d="M2026.5,664.028c33.74,0 59.375,-14.244 76.887,-42.74c17.507,-28.491 31.353,-70.279 41.547,-125.36c10.188,-55.078 15.281,-92.328 15.281,-111.75c0,-33.431 -7.721,-58.74 -23.159,-75.934c-15.447,-17.191 -35.9,-25.788 -61.369,-25.788c-48.709,0 -82.937,33.907 -102.675,101.722c-19.743,67.813 -29.609,127.828 -29.609,180.041c-0,66.544 27.7,99.809 83.097,99.809m-1.431,151.866c-77.054,-0 -143.913,-25.228 -200.579,-75.694c-56.671,-50.456 -85.006,-122.809 -85.006,-217.053c0,-109.197 31.678,-201.925 95.038,-278.178c63.35,-76.247 146.131,-114.375 248.331,-114.375c81.819,-0 148.997,26.669 201.531,79.99c52.531,53.332 78.797,123.138 78.797,209.41c0,110.159 -31.206,203.681 -93.603,280.568c-62.403,76.888 -143.909,115.332 -244.509,115.332" style="fill:#fff;fill-rule:nonzero;stroke:#19315c;stroke-width:0.75px;"/>
    <path d="M3050.87,147.307l-108.884,651.872l-144.884,-0l-125.035,-250.272c-34.04,-68.456 -55.556,-122.584 -64.537,-162.388c0.634,9.56 0.953,17.044 0.953,22.454c-0,17.834 -2.394,41.4 -7.169,70.687l-53.534,319.519l-158.81,-0l108.885,-651.872l175.578,-0l71.612,150.919c49.644,104.437 81.96,181.643 96.947,231.625c-0.956,-13.06 -1.434,-22.785 -1.434,-29.157c-0,-18.478 4.29,-53.821 12.887,-106.031l41.51,-247.356l155.915,-0Z" style="fill:#fff;fill-rule:nonzero;stroke:#19315c;stroke-width:0.75px;"/>
    <path d="M3349.47,147.307l-108.872,651.872l-185.435,-0l108.885,-651.872l185.422,-0Z" style="fill:#fff;fill-rule:nonzero;stroke:#19315c;stroke-width:0.75px;"/>
    <path d="M3802.01,394.416l124.709,404.762l-192.365,0l-73.728,-269.206l-98.875,110.26l-26.541,158.946l-181.562,0l108.881,-651.871l181.55,-0l-50.01,299.468c10.507,-24.787 26.191,-49.347 47.054,-73.665c20.856,-24.31 54.584,-64.678 101.193,-121.097l92.875,-104.706l186.085,-0l-219.266,247.109Z" style="fill:#fff;fill-rule:nonzero;stroke:#19315c;stroke-width:0.75px;"/>
    <path d="M531.899,0l-386.541,201.75c0,0 106.672,67.156 170.803,33.55l184.188,-96.631c5.028,-2.635 10.65,-2.638 14.747,-0l195.765,125.947c4.091,2.631 6.041,7.493 5.116,12.753l-17.738,100.772c-1.965,11.162 -15.278,18.143 -23.965,12.565l-137.35,-88.222c-37.56,-24.221 -114.425,3.725 -154.707,21.372c-11.334,4.963 -14.431,19.653 -5.434,25.45l448.597,289.11l26.05,-147.738l45.066,-255.575l-364.597,-235.103Z" style="fill:#fff;fill-rule:nonzero;stroke:#19315c;stroke-width:0.75px;"/>
    <path d="M364.597,940.908l386.54,-201.75c0,-0 -106.453,-67.069 -170.584,-33.463l-176.478,92.4c-9.934,5.2 -21.041,5.197 -29.134,-0.009l-182.847,-117.638c-8.088,-5.203 -11.944,-14.815 -10.113,-25.219l16.272,-92.453c1.966,-11.165 15.285,-18.147 23.969,-12.562l137.347,88.294c37.65,24.153 114.469,-3.804 154.725,-21.45c11.328,-4.969 14.425,-19.654 5.428,-25.45l-448.606,-289.116l-26.05,147.737l-45.066,255.575l364.597,235.104Z" style="fill:#fff;fill-rule:nonzero;stroke:#19315c;stroke-width:0.75px;"/>
</svg>
